<?xml version="1.0" encoding="utf-8"?>
<!-- Generator: Adobe Illustrator 16.0.0, SVG Export Plug-In . SVG Version: 6.00 Build 0)  -->
<!DOCTYPE svg PUBLIC "-//W3C//DTD SVG 1.1//EN" "http://www.w3.org/Graphics/SVG/1.1/DTD/svg11.dtd">
<svg version="1.1" xmlns="http://www.w3.org/2000/svg" xmlns:xlink="http://www.w3.org/1999/xlink" x="0px" y="0px" width="1280px"
	 height="720px" viewBox="0 0 1280 720" enable-background="new 0 0 1280 720" xml:space="preserve">
<g id="_x31_">
	<path fill="#FFF654" d="M792,543l-260,31l80-248L792,543z M-23,445c-3,2,24,291,24,291l446-16L312,485L0,414C0,414-20,443-23,445z
		 M1279,122l-139,178l139,24l28-200L1279,122z"/>
</g>
<g id="_x32_" display="none">
	<polygon display="inline" fill="#FA6AFF" points="681,-23 409,91 142,291 -76,480 -48,-54 	"/>
	<polygon display="inline" fill="#FA6AFF" points="841.6,261 602,313.2 674.7,503.7 966.5,315.3 	"/>
	<polygon display="inline" fill="#FA6AFF" points="298,498.7 412,739.3 451.3,738 301.7,487.3 	"/>
</g>
<g id="_x33_" display="none">
	<polygon display="inline" fill="#E92700" points="406,92 107,298 286,517 603,313 859,275 	"/>
	<polygon display="inline" fill="#E92700" points="1140.5,296 1295.5,294 1302,336.5 	"/>
</g>
<g id="_x34_" display="none">
	<polygon display="inline" fill="#1F00A9" points="682.4,-65 398,97.5 974,329.8 1163.6,310 1374,41.2 1335.5,-18.1 	"/>
	<polygon display="inline" fill="#1F00A9" points="452,739 299,487 345,407 607,311 621,308 544,581 539,819 	"/>
	<polygon display="inline" fill="#1F00A9" points="218.9,220.7 305.2,409.6 300.2,420.8 194.3,236.8 	"/>
	<polygon display="inline" fill="#1F00A9" points="612,340 674.7,503 651,512.7 	"/>
</g>
<g id="_x36_" display="none">
	<polygon display="inline" fill="#09002A" points="1141,296 959,315 670,502 539,562 489,758 1049,766 1405,751 1398,342 	"/>
	<polygon display="inline" fill="#09002A" points="301,419 257,519 -91,422 183,198 	"/>
	<polygon display="inline" fill="#09002A" points="614.6,330.8 345,407 624.1,304.8 	"/>
	<polygon display="inline" fill="#09002A" points="641,-41.3 406.3,92 673.3,-38.3 	"/>
</g>
</svg>
