<?xml version="1.0" encoding="utf-8"?>
<!-- Generator: Adobe Illustrator 19.0.0, SVG Export Plug-In . SVG Version: 6.00 Build 0)  -->
<svg version="1.1" xmlns="http://www.w3.org/2000/svg" xmlns:xlink="http://www.w3.org/1999/xlink" x="0px" y="0px"
	 viewBox="0 0 1200 960" enable-background="new 0 0 1200 960" xml:space="preserve">
<g id="yellow">
	<polygon id="XMLID_6_" fill="#A5A836" points="547.4,321.1 484.5,212.2 547.4,103.3 673.2,103.3 736,212.2 673.2,321.1 	"/>
	<polygon id="XMLID_4_" fill="#9CAA35" points="169.6,538.4 106.7,429.5 169.6,320.6 295.4,320.6 358.2,429.5 295.4,538.4 	"/>
	<polygon id="XMLID_18_" fill="#A2AA34" points="734.9,647.3 672,538.4 734.9,429.5 860.7,429.5 923.6,538.4 860.7,647.3 	"/>
	<polygon id="XMLID_32_" fill="#AA9F36" points="733.9,1083 671,974.1 733.9,865.2 859.7,865.2 922.6,974.1 859.7,1083 	"/>
	<polygon id="XMLID_34_" fill="#A8A835" points="924.4,103.2 861.6,-5.7 924.4,-114.6 1050.2,-114.6 1113.1,-5.7 1050.2,103.2 	"/>
	<polygon id="XMLID_22_" fill="#AA9334" points="169.6,974.1 106.7,865.2 169.6,756.2 295.4,756.2 358.2,865.2 295.4,974.1 	"/>
</g>
</svg>
