<?xml version="1.0" encoding="utf-8"?>
<!-- Generator: Adobe Illustrator 19.0.0, SVG Export Plug-In . SVG Version: 6.00 Build 0)  -->
<svg version="1.1" xmlns="http://www.w3.org/2000/svg" xmlns:xlink="http://www.w3.org/1999/xlink" x="0px" y="0px"
	 viewBox="0 0 1200 960" enable-background="new 0 0 1200 960" xml:space="preserve">
<g id="Calque_1">
</g>
<g id="Calque_4" display="none">
	<polygon id="XMLID_18_" display="inline" fill="#AF6E5F" points="223.7,-74.3 -103,-74.3 -59,1005.7 1252.2,1025.9 1229,-14.3 	"/>
</g>
<g id="Calque_3" display="none">
	<polygon id="XMLID_11_" display="inline" fill="#5F6FB2" points="295.7,-45 600,480.5 -53.7,207 -81.7,-45 	"/>
	<polygon id="XMLID_13_" display="inline" fill="#5F6FB2" points="600,480.5 706.3,-45 994.3,-58.3 	"/>
	<polygon id="XMLID_14_" display="inline" fill="#5F6FB2" points="600,480.5 1302.3,294.4 1302.3,601.7 	"/>
	<polygon id="XMLID_15_" display="inline" fill="#5F6FB2" points="600,480.5 -125.7,627 -125.7,857.7 	"/>
	<polygon id="XMLID_16_" display="inline" fill="#5F6FB2" points="600,480.5 215.7,1037.7 609,1059 	"/>
	<polygon id="XMLID_17_" display="inline" fill="#5F6FB2" points="600,480.5 1323.7,1085.7 961.8,1077.7 	"/>
</g>
<g id="Calque_2">
	<polygon id="XMLID_4_" fill="#5FB564" points="600,480.5 425,-22.3 600,-22.3 	"/>
	<polygon id="XMLID_3_" fill="#5FB564" points="1165,-33 813,-33 600,480.5 	"/>
	<polygon id="XMLID_5_" fill="#5FB564" points="600,480.5 150.3,-39.7 -53.7,-15.7 -53.7,73.7 	"/>
	<polygon id="XMLID_7_" fill="#5FB564" points="-53.7,324.3 600,480.5 -71,520.3 	"/>
	<polygon id="XMLID_8_" fill="#5FB564" points="600,480.5 -91,732.3 -45.7,944.3 	"/>
	<polygon id="XMLID_9_" fill="#5FB564" points="600,480.5 465,1027 782.3,1016.3 	"/>
	<polygon id="XMLID_10_" fill="#5FB564" points="1267.7,108.3 600,480.5 1267.7,389.7 	"/>
	<polygon id="XMLID_6_" fill="#5FB564" points="600,480.5 1035.7,979 1222.3,1005.7 1229,793.7 	"/>
</g>
</svg>
