<?xml version="1.0" encoding="utf-8"?>
<!-- Generator: Adobe Illustrator 19.0.0, SVG Export Plug-In . SVG Version: 6.00 Build 0)  -->
<svg version="1.1" xmlns="http://www.w3.org/2000/svg" xmlns:xlink="http://www.w3.org/1999/xlink" x="0px" y="0px"
	 viewBox="0 0 1200 960" enable-background="new 0 0 1200 960" xml:space="preserve">
<g id="blue">
	<polygon id="XMLID_3_" fill="#27295B" points="358.2,212.2 295.3,103.3 358.2,-5.6 483.9,-5.6 546.8,103.3 483.9,212.2 	"/>
	<polygon id="XMLID_8_" fill="#384093" points="547.4,538.4 484.5,429.5 547.4,320.6 673.2,320.6 736,429.5 673.2,538.4 	"/>
	<polygon id="XMLID_9_" fill="#384093" points="358.2,865.2 295.3,756.2 358.2,647.3 483.9,647.3 546.8,756.2 483.9,865.2 	"/>
	<polygon id="XMLID_11_" fill="#384395" points="924.4,321.1 861.6,212.2 924.4,103.3 1050.2,103.3 1113.1,212.2 1050.2,321.1 	"/>
	<polygon id="XMLID_15_" fill="#533F92" points="1111,647.3 1048.1,538.4 1111,429.5 1236.7,429.5 1299.6,538.4 1236.7,647.3 	"/>
	<polygon id="XMLID_20_" fill="#3C4093" points="-19,647.3 -81.9,538.4 -19,429.5 106.8,429.5 169.7,538.4 106.8,647.3 	"/>
	<polygon id="XMLID_23_" fill="#384093" points="733.9,865.2 671,756.2 733.9,647.3 859.7,647.3 922.6,756.2 859.7,865.2 	"/>
	<polygon id="XMLID_30_" fill="#3A4093" points="-19,211.2 -81.9,102.2 -19,-6.7 106.8,-6.7 169.7,102.2 106.8,211.2 	"/>
</g>
</svg>
