<?xml version="1.0" encoding="utf-8"?>
<!-- Generator: Adobe Illustrator 19.0.0, SVG Export Plug-In . SVG Version: 6.00 Build 0)  -->
<svg version="1.1" xmlns="http://www.w3.org/2000/svg" xmlns:xlink="http://www.w3.org/1999/xlink" x="0px" y="0px"
	 viewBox="0 0 1200 960" enable-background="new 0 0 1200 960" xml:space="preserve">
<g id="red">
	<polygon id="XMLID_1_" fill="#E6311F" points="169.6,321.1 106.7,212.2 169.6,103.2 295.4,103.2 358.2,212.2 295.4,321.1 	"/>
	<polygon id="XMLID_5_" fill="#E62153" points="358.2,647.3 295.3,538.4 358.2,429.5 483.9,429.5 546.8,538.4 483.9,647.3 	"/>
	<polygon id="XMLID_10_" fill="#AB5235" points="735.9,212.2 673,103.3 735.9,-5.6 861.7,-5.6 924.6,103.3 861.7,212.2 	"/>
	<polygon id="XMLID_12_" fill="#AB3535" points="545.4,974.1 482.5,865.2 545.4,756.2 671.2,756.2 734,865.2 671.2,974.1 	"/>
	<polygon id="XMLID_13_" fill="#AB4736" points="923.4,538.4 860.6,429.5 923.4,320.6 1049.2,320.6 1112.1,429.5 1049.2,538.4 	"/>
	<polygon id="XMLID_21_" fill="#AB4E35" points="-19,865.2 -81.9,756.2 -19,647.3 106.8,647.3 169.7,756.2 106.8,865.2 	"/>
	<polygon id="XMLID_25_" fill="#924440" points="922.4,974.1 859.6,865.2 922.4,756.2 1048.2,756.2 1111.1,865.2 1048.2,974.1 	"/>
	<polygon id="XMLID_27_" fill="#AB4B35" points="1113,212.2 1050.1,103.3 1113,-5.6 1238.7,-5.6 1301.6,103.3 1238.7,212.2 	"/>
</g>
</svg>
